<mxfile host="app.diagrams.net" modified="2021-07-05T21:41:14.035Z" agent="5.0 (X11; Linux x86_64) AppleWebKit/537.36 (KHTML, like Gecko) Chrome/91.0.4472.114 Safari/537.36" etag="HAe9WIKomyFbgQaTJU6h" version="14.8.3" type="github">
  <diagram id="R2lEEEUBdFMjLlhIrx00" name="Page-1">
    <mxGraphModel dx="868" dy="462" grid="1" gridSize="10" guides="1" tooltips="1" connect="1" arrows="1" fold="1" page="1" pageScale="1" pageWidth="850" pageHeight="1100" math="0" shadow="0" extFonts="Permanent Marker^https://fonts.googleapis.com/css?family=Permanent+Marker">
      <root>
        <mxCell id="0" />
        <mxCell id="1" parent="0" />
        <mxCell id="SzC2NtrYhMyB26FWn1-i-2" value="Customers" style="shape=table;startSize=30;container=1;collapsible=1;childLayout=tableLayout;fixedRows=1;rowLines=0;fontStyle=1;align=center;resizeLast=1;" vertex="1" parent="1">
          <mxGeometry x="60" y="60" width="290" height="210" as="geometry" />
        </mxCell>
        <mxCell id="SzC2NtrYhMyB26FWn1-i-3" value="" style="shape=partialRectangle;collapsible=0;dropTarget=0;pointerEvents=0;fillColor=none;top=0;left=0;bottom=1;right=0;points=[[0,0.5],[1,0.5]];portConstraint=eastwest;" vertex="1" parent="SzC2NtrYhMyB26FWn1-i-2">
          <mxGeometry y="30" width="290" height="30" as="geometry" />
        </mxCell>
        <mxCell id="SzC2NtrYhMyB26FWn1-i-4" value="PK" style="shape=partialRectangle;connectable=0;fillColor=none;top=0;left=0;bottom=0;right=0;fontStyle=1;overflow=hidden;" vertex="1" parent="SzC2NtrYhMyB26FWn1-i-3">
          <mxGeometry width="30" height="30" as="geometry" />
        </mxCell>
        <mxCell id="SzC2NtrYhMyB26FWn1-i-5" value="customerID" style="shape=partialRectangle;connectable=0;fillColor=none;top=0;left=0;bottom=0;right=0;align=left;spacingLeft=6;fontStyle=5;overflow=hidden;" vertex="1" parent="SzC2NtrYhMyB26FWn1-i-3">
          <mxGeometry x="30" width="260" height="30" as="geometry" />
        </mxCell>
        <mxCell id="SzC2NtrYhMyB26FWn1-i-6" value="" style="shape=partialRectangle;collapsible=0;dropTarget=0;pointerEvents=0;fillColor=none;top=0;left=0;bottom=0;right=0;points=[[0,0.5],[1,0.5]];portConstraint=eastwest;" vertex="1" parent="SzC2NtrYhMyB26FWn1-i-2">
          <mxGeometry y="60" width="290" height="30" as="geometry" />
        </mxCell>
        <mxCell id="SzC2NtrYhMyB26FWn1-i-7" value="" style="shape=partialRectangle;connectable=0;fillColor=none;top=0;left=0;bottom=0;right=0;editable=1;overflow=hidden;" vertex="1" parent="SzC2NtrYhMyB26FWn1-i-6">
          <mxGeometry width="30" height="30" as="geometry" />
        </mxCell>
        <mxCell id="SzC2NtrYhMyB26FWn1-i-8" value="name" style="shape=partialRectangle;connectable=0;fillColor=none;top=0;left=0;bottom=0;right=0;align=left;spacingLeft=6;overflow=hidden;" vertex="1" parent="SzC2NtrYhMyB26FWn1-i-6">
          <mxGeometry x="30" width="260" height="30" as="geometry" />
        </mxCell>
        <mxCell id="SzC2NtrYhMyB26FWn1-i-9" value="" style="shape=partialRectangle;collapsible=0;dropTarget=0;pointerEvents=0;fillColor=none;top=0;left=0;bottom=0;right=0;points=[[0,0.5],[1,0.5]];portConstraint=eastwest;" vertex="1" parent="SzC2NtrYhMyB26FWn1-i-2">
          <mxGeometry y="90" width="290" height="30" as="geometry" />
        </mxCell>
        <mxCell id="SzC2NtrYhMyB26FWn1-i-10" value="" style="shape=partialRectangle;connectable=0;fillColor=none;top=0;left=0;bottom=0;right=0;editable=1;overflow=hidden;" vertex="1" parent="SzC2NtrYhMyB26FWn1-i-9">
          <mxGeometry width="30" height="30" as="geometry" />
        </mxCell>
        <mxCell id="SzC2NtrYhMyB26FWn1-i-11" value="personalInfo" style="shape=partialRectangle;connectable=0;fillColor=none;top=0;left=0;bottom=0;right=0;align=left;spacingLeft=6;overflow=hidden;" vertex="1" parent="SzC2NtrYhMyB26FWn1-i-9">
          <mxGeometry x="30" width="260" height="30" as="geometry" />
        </mxCell>
        <mxCell id="SzC2NtrYhMyB26FWn1-i-12" value="" style="shape=partialRectangle;collapsible=0;dropTarget=0;pointerEvents=0;fillColor=none;top=0;left=0;bottom=0;right=0;points=[[0,0.5],[1,0.5]];portConstraint=eastwest;" vertex="1" parent="SzC2NtrYhMyB26FWn1-i-2">
          <mxGeometry y="120" width="290" height="30" as="geometry" />
        </mxCell>
        <mxCell id="SzC2NtrYhMyB26FWn1-i-13" value="" style="shape=partialRectangle;connectable=0;fillColor=none;top=0;left=0;bottom=0;right=0;editable=1;overflow=hidden;" vertex="1" parent="SzC2NtrYhMyB26FWn1-i-12">
          <mxGeometry width="30" height="30" as="geometry" />
        </mxCell>
        <mxCell id="SzC2NtrYhMyB26FWn1-i-14" value="dateRenting" style="shape=partialRectangle;connectable=0;fillColor=none;top=0;left=0;bottom=0;right=0;align=left;spacingLeft=6;overflow=hidden;" vertex="1" parent="SzC2NtrYhMyB26FWn1-i-12">
          <mxGeometry x="30" width="260" height="30" as="geometry" />
        </mxCell>
        <mxCell id="SzC2NtrYhMyB26FWn1-i-15" value="" style="shape=partialRectangle;collapsible=0;dropTarget=0;pointerEvents=0;fillColor=none;top=0;left=0;bottom=0;right=0;points=[[0,0.5],[1,0.5]];portConstraint=eastwest;" vertex="1" parent="SzC2NtrYhMyB26FWn1-i-2">
          <mxGeometry y="150" width="290" height="30" as="geometry" />
        </mxCell>
        <mxCell id="SzC2NtrYhMyB26FWn1-i-16" value="" style="shape=partialRectangle;connectable=0;fillColor=none;top=0;left=0;bottom=0;right=0;editable=1;overflow=hidden;" vertex="1" parent="SzC2NtrYhMyB26FWn1-i-15">
          <mxGeometry width="30" height="30" as="geometry" />
        </mxCell>
        <mxCell id="SzC2NtrYhMyB26FWn1-i-17" value="periodRenting" style="shape=partialRectangle;connectable=0;fillColor=none;top=0;left=0;bottom=0;right=0;align=left;spacingLeft=6;overflow=hidden;" vertex="1" parent="SzC2NtrYhMyB26FWn1-i-15">
          <mxGeometry x="30" width="260" height="30" as="geometry" />
        </mxCell>
        <mxCell id="SzC2NtrYhMyB26FWn1-i-47" value="" style="shape=partialRectangle;collapsible=0;dropTarget=0;pointerEvents=0;fillColor=none;top=0;left=0;bottom=0;right=0;points=[[0,0.5],[1,0.5]];portConstraint=eastwest;" vertex="1" parent="SzC2NtrYhMyB26FWn1-i-2">
          <mxGeometry y="180" width="290" height="30" as="geometry" />
        </mxCell>
        <mxCell id="SzC2NtrYhMyB26FWn1-i-48" value="FK" style="shape=partialRectangle;connectable=0;fillColor=none;top=0;left=0;bottom=0;right=0;editable=1;overflow=hidden;fontStyle=1" vertex="1" parent="SzC2NtrYhMyB26FWn1-i-47">
          <mxGeometry width="30" height="30" as="geometry" />
        </mxCell>
        <mxCell id="SzC2NtrYhMyB26FWn1-i-49" value="carID" style="shape=partialRectangle;connectable=0;fillColor=none;top=0;left=0;bottom=0;right=0;align=left;spacingLeft=6;overflow=hidden;fontStyle=1" vertex="1" parent="SzC2NtrYhMyB26FWn1-i-47">
          <mxGeometry x="30" width="260" height="30" as="geometry" />
        </mxCell>
        <mxCell id="SzC2NtrYhMyB26FWn1-i-18" value="Cars" style="shape=table;startSize=30;container=1;collapsible=1;childLayout=tableLayout;fixedRows=1;rowLines=0;fontStyle=1;align=center;resizeLast=1;" vertex="1" parent="1">
          <mxGeometry x="510" y="90" width="280" height="160" as="geometry" />
        </mxCell>
        <mxCell id="SzC2NtrYhMyB26FWn1-i-19" value="" style="shape=partialRectangle;collapsible=0;dropTarget=0;pointerEvents=0;fillColor=none;top=0;left=0;bottom=1;right=0;points=[[0,0.5],[1,0.5]];portConstraint=eastwest;" vertex="1" parent="SzC2NtrYhMyB26FWn1-i-18">
          <mxGeometry y="30" width="280" height="30" as="geometry" />
        </mxCell>
        <mxCell id="SzC2NtrYhMyB26FWn1-i-20" value="PK" style="shape=partialRectangle;connectable=0;fillColor=none;top=0;left=0;bottom=0;right=0;fontStyle=1;overflow=hidden;" vertex="1" parent="SzC2NtrYhMyB26FWn1-i-19">
          <mxGeometry width="30" height="30" as="geometry" />
        </mxCell>
        <mxCell id="SzC2NtrYhMyB26FWn1-i-21" value="carID" style="shape=partialRectangle;connectable=0;fillColor=none;top=0;left=0;bottom=0;right=0;align=left;spacingLeft=6;fontStyle=5;overflow=hidden;" vertex="1" parent="SzC2NtrYhMyB26FWn1-i-19">
          <mxGeometry x="30" width="250" height="30" as="geometry" />
        </mxCell>
        <mxCell id="SzC2NtrYhMyB26FWn1-i-22" value="" style="shape=partialRectangle;collapsible=0;dropTarget=0;pointerEvents=0;fillColor=none;top=0;left=0;bottom=0;right=0;points=[[0,0.5],[1,0.5]];portConstraint=eastwest;" vertex="1" parent="SzC2NtrYhMyB26FWn1-i-18">
          <mxGeometry y="60" width="280" height="30" as="geometry" />
        </mxCell>
        <mxCell id="SzC2NtrYhMyB26FWn1-i-23" value="" style="shape=partialRectangle;connectable=0;fillColor=none;top=0;left=0;bottom=0;right=0;editable=1;overflow=hidden;" vertex="1" parent="SzC2NtrYhMyB26FWn1-i-22">
          <mxGeometry width="30" height="30" as="geometry" />
        </mxCell>
        <mxCell id="SzC2NtrYhMyB26FWn1-i-24" value="addresBranch" style="shape=partialRectangle;connectable=0;fillColor=none;top=0;left=0;bottom=0;right=0;align=left;spacingLeft=6;overflow=hidden;" vertex="1" parent="SzC2NtrYhMyB26FWn1-i-22">
          <mxGeometry x="30" width="250" height="30" as="geometry" />
        </mxCell>
        <mxCell id="SzC2NtrYhMyB26FWn1-i-25" value="" style="shape=partialRectangle;collapsible=0;dropTarget=0;pointerEvents=0;fillColor=none;top=0;left=0;bottom=0;right=0;points=[[0,0.5],[1,0.5]];portConstraint=eastwest;" vertex="1" parent="SzC2NtrYhMyB26FWn1-i-18">
          <mxGeometry y="90" width="280" height="30" as="geometry" />
        </mxCell>
        <mxCell id="SzC2NtrYhMyB26FWn1-i-26" value="" style="shape=partialRectangle;connectable=0;fillColor=none;top=0;left=0;bottom=0;right=0;editable=1;overflow=hidden;" vertex="1" parent="SzC2NtrYhMyB26FWn1-i-25">
          <mxGeometry width="30" height="30" as="geometry" />
        </mxCell>
        <mxCell id="SzC2NtrYhMyB26FWn1-i-27" value="price" style="shape=partialRectangle;connectable=0;top=0;left=0;bottom=0;right=0;align=left;spacingLeft=6;overflow=hidden;" vertex="1" parent="SzC2NtrYhMyB26FWn1-i-25">
          <mxGeometry x="30" width="250" height="30" as="geometry" />
        </mxCell>
        <mxCell id="SzC2NtrYhMyB26FWn1-i-28" value="" style="shape=partialRectangle;collapsible=0;dropTarget=0;pointerEvents=0;fillColor=none;top=0;left=0;bottom=0;right=0;points=[[0,0.5],[1,0.5]];portConstraint=eastwest;" vertex="1" parent="SzC2NtrYhMyB26FWn1-i-18">
          <mxGeometry y="120" width="280" height="30" as="geometry" />
        </mxCell>
        <mxCell id="SzC2NtrYhMyB26FWn1-i-29" value="FK" style="shape=partialRectangle;connectable=0;fillColor=none;top=0;left=0;bottom=0;right=0;editable=1;overflow=hidden;fontStyle=1" vertex="1" parent="SzC2NtrYhMyB26FWn1-i-28">
          <mxGeometry width="30" height="30" as="geometry" />
        </mxCell>
        <mxCell id="SzC2NtrYhMyB26FWn1-i-30" value="customerID" style="shape=partialRectangle;connectable=0;fillColor=none;top=0;left=0;bottom=0;right=0;align=left;spacingLeft=6;overflow=hidden;fontStyle=1" vertex="1" parent="SzC2NtrYhMyB26FWn1-i-28">
          <mxGeometry x="30" width="250" height="30" as="geometry" />
        </mxCell>
        <mxCell id="SzC2NtrYhMyB26FWn1-i-50" value="" style="edgeStyle=entityRelationEdgeStyle;fontSize=12;html=1;endArrow=ERzeroToMany;startArrow=ERmandOne;exitX=1;exitY=0.5;exitDx=0;exitDy=0;entryX=0;entryY=0.5;entryDx=0;entryDy=0;endSize=7;" edge="1" parent="1" source="SzC2NtrYhMyB26FWn1-i-3" target="SzC2NtrYhMyB26FWn1-i-28">
          <mxGeometry width="100" height="100" relative="1" as="geometry">
            <mxPoint x="340" y="110" as="sourcePoint" />
            <mxPoint x="530" y="100" as="targetPoint" />
          </mxGeometry>
        </mxCell>
        <mxCell id="SzC2NtrYhMyB26FWn1-i-52" value="" style="edgeStyle=entityRelationEdgeStyle;fontSize=12;html=1;endArrow=ERzeroToMany;startArrow=ERmandOne;entryX=1;entryY=0.5;entryDx=0;entryDy=0;exitX=0;exitY=0.5;exitDx=0;exitDy=0;endSize=8;" edge="1" parent="1" source="SzC2NtrYhMyB26FWn1-i-19" target="SzC2NtrYhMyB26FWn1-i-47">
          <mxGeometry width="100" height="100" relative="1" as="geometry">
            <mxPoint x="430" y="120" as="sourcePoint" />
            <mxPoint x="550" y="360" as="targetPoint" />
          </mxGeometry>
        </mxCell>
      </root>
    </mxGraphModel>
  </diagram>
</mxfile>
